solid
facet normal -0.0500000007451 0.0 0.0
outer loop
vertex 0.0 0.0 0.5
vertex 0.0 0.10000000149 0.5
vertex 0.0 0.0 0.0
endloop
endfacet
facet normal -0.0500000007451 -0.0 0.0
outer loop
vertex 0.0 0.0 0.0
vertex 0.0 0.10000000149 0.5
vertex 0.0 0.10000000149 0.0
endloop
endfacet
facet normal -0.0 0.0500000007451 0.0
outer loop
vertex 0.0 0.10000000149 0.5
vertex 0.10000000149 0.10000000149 0.5
vertex 0.0 0.10000000149 0.0
endloop
endfacet
facet normal 0.0 0.0500000007451 0.0
outer loop
vertex 0.0 0.10000000149 0.0
vertex 0.10000000149 0.10000000149 0.5
vertex 0.10000000149 0.10000000149 0.0
endloop
endfacet
facet normal 0.0500000007451 0.0 0.0
outer loop
vertex 0.10000000149 0.10000000149 0.5
vertex 0.10000000149 0.0 0.5
vertex 0.10000000149 0.10000000149 0.0
endloop
endfacet
facet normal 0.0500000007451 -0.0 0.0
outer loop
vertex 0.10000000149 0.10000000149 0.0
vertex 0.10000000149 0.0 0.5
vertex 0.10000000149 0.0 0.0
endloop
endfacet
facet normal -0.0 -0.0500000007451 -0.0
outer loop
vertex 0.10000000149 0.0 0.5
vertex 0.0 0.0 0.5
vertex 0.10000000149 0.0 0.0
endloop
endfacet
facet normal 0.0 -0.0500000007451 0.0
outer loop
vertex 0.10000000149 0.0 0.0
vertex 0.0 0.0 0.5
vertex 0.0 0.0 0.0
endloop
endfacet
facet normal 0.0 -0.0 0.010000000298
outer loop
vertex 0.0 0.0 0.5
vertex 0.10000000149 0.0 0.5
vertex 0.0 0.10000000149 0.5
endloop
endfacet
facet normal -0.0 -0.0 0.010000000298
outer loop
vertex 0.0 0.10000000149 0.5
vertex 0.10000000149 0.0 0.5
vertex 0.10000000149 0.10000000149 0.5
endloop
endfacet
facet normal 0.0 0.0 -0.010000000298
outer loop
vertex 0.10000000149 0.0 0.0
vertex 0.0 0.0 0.0
vertex 0.10000000149 0.10000000149 0.0
endloop
endfacet
facet normal -0.0 -0.0 -0.010000000298
outer loop
vertex 0.10000000149 0.10000000149 0.0
vertex 0.0 0.0 0.0
vertex 0.0 0.10000000149 0.0
endloop
endfacet
endsolid
