solid 0
facet normal 0.0000000 0.0000000 -151.4753723
outer loop
vertex -6.9931650 25.8872700 -33.4000015
vertex 12.5899296 -0.6676314 -33.4000015
vertex 3.6797180 3.6797130 -33.4000015
endloop
endfacet
facet normal 10.7894459 54.2450142 -0.0785134
outer loop
vertex -2.0090761 -4.8503509 -6.4000001
vertex -0.0000017 -5.2499599 -6.4000001
vertex -0.0325971 -5.2825561 -33.4000015
endloop
endfacet
facet normal 0.0000000 0.0000000 54.9466629
outer loop
vertex -0.0000017 -5.2499599 -6.4000001
vertex -2.0090761 -4.8503509 -6.4000001
vertex -1.4544410 -32.3099098 -6.4000001
endloop
endfacet
facet normal 34.5636826 34.5636902 -36.0692291
outer loop
vertex -28.3394108 4.5410252 -32.3154106
vertex 3.5285389 -27.3269196 -32.3154106
vertex -28.9053307 3.9751110 -33.4000015
endloop
endfacet
facet normal 134.5407410 -134.5404663 0.0000000
outer loop
vertex -1.4544410 -32.3099098 -33.4000015
vertex 3.5285389 -27.3269196 -32.3154106
vertex -1.4544410 -32.3099098 -6.4000001
endloop
endfacet
facet normal 34.5636902 34.5636940 -36.0692139
outer loop
vertex -28.9053307 3.9751110 -33.4000015
vertex 3.5285389 -27.3269196 -32.3154106
vertex 2.9626260 -27.8928394 -33.4000015
endloop
endfacet
facet normal 7.2890320 -7.2888489 0.0000458
outer loop
vertex -1.4544410 -32.3099098 -6.4000001
vertex 5.3494430 -25.5060291 -32.3152809
vertex 5.9154859 -24.9399796 -33.4000015
endloop
endfacet
facet normal -34.5678291 -34.5678253 -36.0775146
outer loop
vertex -26.5185108 6.3619270 -32.3152809
vertex 5.9154859 -24.9399796 -33.4000015
vertex 5.3494430 -25.5060291 -32.3152809
endloop
endfacet
facet normal -0.1653370 0.1653415 -0.0000114
outer loop
vertex -27.4292107 5.4512291 -31.8999996
vertex -28.3394108 4.5410252 -32.3154106
vertex -31.1138592 1.7665780 -33.4000015
endloop
endfacet
facet normal -7.2888947 7.2887573 -0.0000381
outer loop
vertex -33.3223991 -0.4419552 -6.4000001
vertex -25.9524708 6.9279718 -33.4000015
vertex -26.5185108 6.3619270 -32.3152809
endloop
endfacet
facet normal 13.2382965 13.2382975 -58.0124931
outer loop
vertex 4.4387412 -26.4167194 -31.8999996
vertex 3.5285389 -27.3269196 -32.3154106
vertex -27.4292107 5.4512291 -31.8999996
endloop
endfacet
facet normal -110.0266113 110.0265045 -0.0001221
outer loop
vertex 0.4419552 33.3223991 -33.4000015
vertex -5.5089002 27.3715401 -31.8999996
vertex -33.3223991 -0.4419552 -6.4000001
endloop
endfacet
facet normal -20.5695190 20.5695267 -0.0001221
outer loop
vertex -25.9524708 6.9279718 -33.4000015
vertex -6.4224210 26.4580193 -32.3150711
vertex -6.9931650 25.8872700 -33.4000015
endloop
endfacet
facet normal -4.8458447 4.8458371 -0.0000420
outer loop
vertex 0.4419552 33.3223991 -33.4000015
vertex -4.0240068 28.8564301 -33.4000015
vertex -4.5948849 28.2855606 -32.3149414
endloop
endfacet
facet normal 0.0000000 0.0000000 -284.6425476
outer loop
vertex -4.0240068 28.8564301 -33.4000015
vertex 0.4419552 33.3223991 -33.4000015
vertex 27.8439693 -3.0115430 -33.4000015
endloop
endfacet
facet normal -13.2233562 -13.2233543 -58.2557983
outer loop
vertex 27.2730904 -3.5824180 -32.3149414
vertex -5.5089002 27.3715401 -31.8999996
vertex -4.5948849 28.2855606 -32.3149414
endloop
endfacet
facet normal 13.2274876 13.2274857 -58.2241135
outer loop
vertex -5.5089002 27.3715401 -31.8999996
vertex 25.4455509 -5.4099541 -32.3150711
vertex -6.4224210 26.4580193 -32.3150711
endloop
endfacet
facet normal -34.5786667 -34.5786705 -36.3853836
outer loop
vertex 27.8439693 -3.0115430 -33.4000015
vertex 27.2730904 -3.5824180 -32.3149414
vertex -4.0240068 28.8564301 -33.4000015
endloop
endfacet
facet normal -535.3071899 535.3072510 -0.0000153
outer loop
vertex -33.3223991 -0.4419552 -6.4000001
vertex -6.4224210 26.4580193 -32.3150711
vertex -25.9524708 6.9279718 -33.4000015
endloop
endfacet
facet normal 120.5810089 -120.5809174 0.0000000
outer loop
vertex 32.3099289 1.4544200 -33.4000015
vertex 32.3099289 1.4544200 -6.4000001
vertex 27.8439693 -3.0115430 -33.4000015
endloop
endfacet
facet normal 20.2594757 -20.2595596 0.0000191
outer loop
vertex 32.3099289 1.4544200 -6.4000001
vertex 27.2730904 -3.5824180 -32.3149414
vertex 27.8439693 -3.0115430 -33.4000015
endloop
endfacet
facet normal 0.0000000 0.0000000 -38.7458649
outer loop
vertex -0.0325879 5.2173600 -33.4000015
vertex -6.9931650 25.8872700 -33.4000015
vertex 1.9764860 4.8177509 -33.4000015
endloop
endfacet
facet normal 512.3840332 -512.3850708 0.0001831
outer loop
vertex 5.9154859 -24.9399796 -33.4000015
vertex 26.3590698 -4.4964380 -31.8999996
vertex 32.3099289 1.4544200 -6.4000001
endloop
endfacet
facet normal -13.2341671 -13.2341652 -58.0440445
outer loop
vertex 4.4387412 -26.4167194 -31.8999996
vertex -26.5185108 6.3619270 -32.3152809
vertex 5.3494430 -25.5060291 -32.3152809
endloop
endfacet
facet normal 0.0000000 0.0000000 -78.1907196
outer loop
vertex 0.3340037 -12.8945799 -33.4000015
vertex 4.8177090 -2.0416460 -33.4000015
vertex 12.5899296 -0.6676314 -33.4000015
endloop
endfacet
facet normal 0.0000000 0.0000000 -10.2287102
outer loop
vertex 3.6797180 3.6797130 -33.4000015
vertex 12.5899296 -0.6676314 -33.4000015
vertex 4.8177571 1.9764810 -33.4000015
endloop
endfacet
facet normal 0.0000000 0.0000000 -25.6784782
outer loop
vertex 1.9764860 4.8177509 -33.4000015
vertex -6.9931650 25.8872700 -33.4000015
vertex 3.6797180 3.6797130 -33.4000015
endloop
endfacet
facet normal 0.0000000 0.0000000 -8.0542603
outer loop
vertex -3.7449000 3.6797090 -33.4000015
vertex -6.8051119 6.3638301 -33.4000015
vertex -2.0416410 4.8177042 -33.4000015
endloop
endfacet
facet normal -0.0000000 0.0000000 -15.0656700
outer loop
vertex 12.5899296 -0.6676314 -33.4000015
vertex 4.8177090 -2.0416460 -33.4000015
vertex 5.2173638 -0.0325933 -33.4000015
endloop
endfacet
facet normal 0.0000000 -0.0000000 -4.7136583
outer loop
vertex 3.6797149 -3.7449059 -33.4000015
vertex 4.8177090 -2.0416460 -33.4000015
vertex 0.3340037 -12.8945799 -33.4000015
endloop
endfacet
facet normal -0.0000000 -0.0000000 -159.6582336
outer loop
vertex -3.7449031 -3.7449090 -33.4000015
vertex 0.3340037 -12.8945799 -33.4000015
vertex -25.9524708 6.9279718 -33.4000015
endloop
endfacet
facet normal 0.0000000 0.0000000 -11.7768707
outer loop
vertex 0.3340037 -12.8945799 -33.4000015
vertex 1.9764550 -4.8829012 -33.4000015
vertex 3.6797149 -3.7449059 -33.4000015
endloop
endfacet
facet normal 0.0000000 0.0000000 -14.5582666
outer loop
vertex 5.2173638 -0.0325933 -33.4000015
vertex 4.8177571 1.9764810 -33.4000015
vertex 12.5899296 -0.6676314 -33.4000015
endloop
endfacet
facet normal 0.0000000 0.0000000 -15.4394665
outer loop
vertex 0.3340037 -12.8945799 -33.4000015
vertex -0.0325971 -5.2825561 -33.4000015
vertex 1.9764550 -4.8829012 -33.4000015
endloop
endfacet
facet normal -10.7906828 54.2444077 -0.0524604
outer loop
vertex -0.0000017 -5.2499599 -6.4000001
vertex 1.9764550 -4.8829012 -33.4000015
vertex -0.0325971 -5.2825561 -33.4000015
endloop
endfacet
facet normal -10.7906818 54.2444267 -0.0524601
outer loop
vertex -0.0000017 -5.2499599 -6.4000001
vertex 2.0090511 -4.8503051 -6.4000001
vertex 1.9764550 -4.8829012 -33.4000015
endloop
endfacet
facet normal 0.0000000 0.0000000 53.7835922
outer loop
vertex 2.0090511 -4.8503051 -6.4000001
vertex -0.0000017 -5.2499599 -6.4000001
vertex -1.4544410 -32.3099098 -6.4000001
endloop
endfacet
facet normal 0.0000000 0.0000000 42.8294144
outer loop
vertex -1.4544410 -32.3099098 -6.4000001
vertex 3.7123110 -3.7123110 -6.4000001
vertex 2.0090511 -4.8503051 -6.4000001
endloop
endfacet
facet normal 0.0000000 0.0000000 34.6769104
outer loop
vertex 12.0303097 21.7340393 -6.4000001
vertex 3.7123129 3.7123070 -6.4000001
vertex 4.8503518 2.0090761 -6.4000001
endloop
endfacet
facet normal -0.0000000 0.0000000 23.7435741
outer loop
vertex 3.7123110 -3.7123110 -6.4000001
vertex -1.4544410 -32.3099098 -6.4000001
vertex 4.8503051 -2.0090511 -6.4000001
endloop
endfacet
facet normal 0.0000000 -0.0000000 22.3073235
outer loop
vertex 5.2499599 0.0000018 -6.4000001
vertex 12.0303097 21.7340393 -6.4000001
vertex 4.8503518 2.0090761 -6.4000001
endloop
endfacet
facet normal -0.0000000 0.0000000 67.8661499
outer loop
vertex 4.8503051 -2.0090511 -6.4000001
vertex -1.4544410 -32.3099098 -6.4000001
vertex 12.0303097 21.7340393 -6.4000001
endloop
endfacet
facet normal 0.0000000 0.0000000 28.1272335
outer loop
vertex -2.0090761 -4.8503509 -6.4000001
vertex -3.7123070 -3.7123129 -6.4000001
vertex -33.3223991 -0.4419552 -6.4000001
endloop
endfacet
facet normal 0.0000000 0.0000000 4.9359589
outer loop
vertex 12.0303097 21.7340393 -6.4000001
vertex 5.2499599 0.0000018 -6.4000001
vertex 4.8503051 -2.0090511 -6.4000001
endloop
endfacet
facet normal -54.2444344 10.7906818 0.0524605
outer loop
vertex 5.2499599 0.0000018 -6.4000001
vertex 5.2173638 -0.0325933 -33.4000015
vertex 4.8503051 -2.0090511 -6.4000001
endloop
endfacet
facet normal 0.0000000 0.0000000 857.4050293
outer loop
vertex -33.3223991 -0.4419552 -6.4000001
vertex -1.4544410 -32.3099098 -6.4000001
vertex -2.0090761 -4.8503509 -6.4000001
endloop
endfacet
facet normal 30.7270260 45.9872360 -0.0926130
outer loop
vertex -2.0416710 -4.8829470 -33.4000015
vertex -3.7123070 -3.7123129 -6.4000001
vertex -2.0090761 -4.8503509 -6.4000001
endloop
endfacet
facet normal 45.9872704 30.7270584 -0.0926120
outer loop
vertex -4.8829408 -2.0416770 -33.4000015
vertex -4.8503461 -2.0090809 -6.4000001
vertex -3.7123070 -3.7123129 -6.4000001
endloop
endfacet
facet normal 0.0000000 0.0000000 56.5762177
outer loop
vertex -4.8503461 -2.0090809 -6.4000001
vertex -5.2499552 -0.0000070 -6.4000001
vertex -33.3223991 -0.4419552 -6.4000001
endloop
endfacet
facet normal 0.0000000 0.0000000 -15.1466217
outer loop
vertex -2.0416710 -4.8829470 -33.4000015
vertex -0.0325971 -5.2825561 -33.4000015
vertex 0.3340037 -12.8945799 -33.4000015
endloop
endfacet
facet normal -0.0000000 0.0000000 37.9251633
outer loop
vertex 0.0000076 5.2499542 -6.4000001
vertex 2.0090821 4.8503461 -6.4000001
vertex 12.0303097 21.7340393 -6.4000001
endloop
endfacet
facet normal 45.9880295 -30.7258358 -0.0184235
outer loop
vertex -3.7123051 3.7123051 -6.4000001
vertex -4.8502989 2.0090449 -6.4000001
vertex -3.7449000 3.6797090 -33.4000015
endloop
endfacet
facet normal 0.0000000 0.0000000 480.8140259
outer loop
vertex -33.3223991 -0.4419552 -6.4000001
vertex 0.0000076 5.2499542 -6.4000001
vertex 12.0303097 21.7340393 -6.4000001
endloop
endfacet
facet normal 0.0000000 -0.0000000 1.8821335
outer loop
vertex -2.0090449 4.8502989 -6.4000001
vertex 0.0000076 5.2499542 -6.4000001
vertex -33.3223991 -0.4419552 -6.4000001
endloop
endfacet
facet normal 0.0000000 0.0000000 -215.3231812
outer loop
vertex 0.3340037 -12.8945799 -33.4000015
vertex 12.5899296 -0.6676314 -33.4000015
vertex 24.8748093 -5.9807010 -33.4000015
endloop
endfacet
facet normal -102.7983932 102.7983322 -0.0000305
outer loop
vertex -31.1138592 1.7665780 -33.4000015
vertex -33.3223991 -0.4419552 -6.4000001
vertex -27.4292107 5.4512291 -31.8999996
endloop
endfacet
facet normal 0.0000000 0.0000000 -5.0099978
outer loop
vertex -6.8051119 6.3638301 -33.4000015
vertex -0.0325879 5.2173600 -33.4000015
vertex -2.0416410 4.8177042 -33.4000015
endloop
endfacet
facet normal 10.7894459 54.2450027 -0.0785132
outer loop
vertex -2.0416710 -4.8829470 -33.4000015
vertex -2.0090761 -4.8503509 -6.4000001
vertex -0.0325971 -5.2825561 -33.4000015
endloop
endfacet
facet normal 45.9880219 -30.7258663 -0.0184257
outer loop
vertex -4.8502989 2.0090449 -6.4000001
vertex -4.8828950 1.9764490 -33.4000015
vertex -3.7449000 3.6797090 -33.4000015
endloop
endfacet
facet normal 0.0000000 -0.0000000 56.2223740
outer loop
vertex -5.2499552 -0.0000070 -6.4000001
vertex -4.8502989 2.0090449 -6.4000001
vertex -33.3223991 -0.4419552 -6.4000001
endloop
endfacet
facet normal -30.7270584 -45.9872360 0.0926093
outer loop
vertex 3.6797180 3.6797130 -33.4000015
vertex 3.7123129 3.7123070 -6.4000001
vertex 2.0090821 4.8503461 -6.4000001
endloop
endfacet
facet normal 0.0000000 -0.0000000 40.1613770
outer loop
vertex 3.7123129 3.7123070 -6.4000001
vertex 12.0303097 21.7340393 -6.4000001
vertex 2.0090821 4.8503461 -6.4000001
endloop
endfacet
facet normal -45.9880219 30.7258415 0.0184268
outer loop
vertex 4.8177090 -2.0416460 -33.4000015
vertex 3.6797149 -3.7449059 -33.4000015
vertex 3.7123110 -3.7123110 -6.4000001
endloop
endfacet
facet normal 0.0000000 0.0000000 -25.6785278
outer loop
vertex -25.9524708 6.9279718 -33.4000015
vertex -4.8829408 -2.0416770 -33.4000015
vertex -3.7449031 -3.7449090 -33.4000015
endloop
endfacet
facet normal -0.0000000 -0.0000000 -38.7458916
outer loop
vertex -5.2825499 -0.0326031 -33.4000015
vertex -4.8829408 -2.0416770 -33.4000015
vertex -25.9524708 6.9279718 -33.4000015
endloop
endfacet
facet normal -10.7894459 -54.2449951 0.0785096
outer loop
vertex 0.0000076 5.2499542 -6.4000001
vertex -0.0325879 5.2173600 -33.4000015
vertex 1.9764860 4.8177509 -33.4000015
endloop
endfacet
facet normal -54.2450066 -10.7893820 0.0785132
outer loop
vertex 5.2173638 -0.0325933 -33.4000015
vertex 5.2499599 0.0000018 -6.4000001
vertex 4.8177571 1.9764810 -33.4000015
endloop
endfacet
facet normal -30.7270260 -45.9872704 0.0926127
outer loop
vertex 1.9764860 4.8177509 -33.4000015
vertex 3.6797180 3.6797130 -33.4000015
vertex 2.0090821 4.8503461 -6.4000001
endloop
endfacet
facet normal 0.0000000 0.0000000 -121.6158600
outer loop
vertex -25.9524708 6.9279718 -33.4000015
vertex -6.8051119 6.3638301 -33.4000015
vertex -5.2825499 -0.0326031 -33.4000015
endloop
endfacet
facet normal 20.7752724 -20.7755661 -0.0000749
outer loop
vertex 5.3494430 -25.5060291 -32.3152809
vertex -1.4544410 -32.3099098 -6.4000001
vertex 4.4387412 -26.4167194 -31.8999996
endloop
endfacet
facet normal 25.6581974 -25.6582508 -0.0000200
outer loop
vertex 4.4387412 -26.4167194 -31.8999996
vertex -1.4544410 -32.3099098 -6.4000001
vertex 3.5285389 -27.3269196 -32.3154106
endloop
endfacet
facet normal -54.2450066 -10.7894201 0.0785104
outer loop
vertex 4.8503518 2.0090761 -6.4000001
vertex 4.8177571 1.9764810 -33.4000015
vertex 5.2499599 0.0000018 -6.4000001
endloop
endfacet
facet normal 30.7258739 -45.9879951 0.0184268
outer loop
vertex -3.7449000 3.6797090 -33.4000015
vertex -2.0416410 4.8177042 -33.4000015
vertex -3.7123051 3.7123051 -6.4000001
endloop
endfacet
facet normal 54.2444077 -10.7906818 -0.0524573
outer loop
vertex -5.2825499 -0.0326031 -33.4000015
vertex -4.8828950 1.9764490 -33.4000015
vertex -5.2499552 -0.0000070 -6.4000001
endloop
endfacet
facet normal -30.7258739 45.9880219 -0.0184254
outer loop
vertex 1.9764550 -4.8829012 -33.4000015
vertex 2.0090511 -4.8503051 -6.4000001
vertex 3.6797149 -3.7449059 -33.4000015
endloop
endfacet
facet normal 10.7907076 -54.2444420 0.0524572
outer loop
vertex -2.0416410 4.8177042 -33.4000015
vertex -0.0325879 5.2173600 -33.4000015
vertex -2.0090449 4.8502989 -6.4000001
endloop
endfacet
facet normal 30.7270260 45.9872704 -0.0926144
outer loop
vertex -2.0416710 -4.8829470 -33.4000015
vertex -3.7449031 -3.7449090 -33.4000015
vertex -3.7123070 -3.7123129 -6.4000001
endloop
endfacet
facet normal -0.0000000 -0.0000000 -205.9918518
outer loop
vertex 0.3340037 -12.8945799 -33.4000015
vertex 5.9154859 -24.9399796 -33.4000015
vertex -25.9524708 6.9279718 -33.4000015
endloop
endfacet
facet normal 0.0000000 0.0000000 -222.1774139
outer loop
vertex 12.5899296 -0.6676314 -33.4000015
vertex -6.9931650 25.8872700 -33.4000015
vertex 24.8748093 -5.9807010 -33.4000015
endloop
endfacet
facet normal 0.0000000 0.0000000 -281.5258179
outer loop
vertex -31.1138592 1.7665780 -33.4000015
vertex 2.9626260 -27.8928394 -33.4000015
vertex -1.4544410 -32.3099098 -33.4000015
endloop
endfacet
facet normal 45.9872704 30.7270203 -0.0926143
outer loop
vertex -3.7123070 -3.7123129 -6.4000001
vertex -3.7449031 -3.7449090 -33.4000015
vertex -4.8829408 -2.0416770 -33.4000015
endloop
endfacet
facet normal 0.0000000 0.0000000 45.7061615
outer loop
vertex -33.3223991 -0.4419552 -6.4000001
vertex -4.8502989 2.0090449 -6.4000001
vertex -3.7123051 3.7123051 -6.4000001
endloop
endfacet
facet normal 34.5745354 34.5745316 -36.3770752
outer loop
vertex -6.4224210 26.4580193 -32.3150711
vertex 25.4455509 -5.4099541 -32.3150711
vertex -6.9931650 25.8872700 -33.4000015
endloop
endfacet
facet normal -34.5678253 -34.5678329 -36.0772285
outer loop
vertex -26.5185108 6.3619270 -32.3152809
vertex -25.9524708 6.9279718 -33.4000015
vertex 5.9154859 -24.9399796 -33.4000015
endloop
endfacet
facet normal -860.4348145 -860.4349365 0.0000000
outer loop
vertex -1.4544410 -32.3099098 -33.4000015
vertex -33.3223991 -0.4419552 -6.4000001
vertex -33.3223991 -0.4419552 -33.4000015
endloop
endfacet
facet normal -59.6304016 59.6305847 0.0000000
outer loop
vertex -33.3223991 -0.4419552 -33.4000015
vertex -33.3223991 -0.4419552 -6.4000001
vertex -31.1138592 1.7665780 -33.4000015
endloop
endfacet
facet normal 13.2274885 13.2274857 -58.2238998
outer loop
vertex 26.3590698 -4.4964380 -31.8999996
vertex 25.4455509 -5.4099541 -32.3150711
vertex -5.5089002 27.3715401 -31.8999996
endloop
endfacet
facet normal 0.0000000 0.0000000 -140.7627106
outer loop
vertex -31.1138592 1.7665780 -33.4000015
vertex -28.9053307 3.9751110 -33.4000015
vertex 2.9626260 -27.8928394 -33.4000015
endloop
endfacet
facet normal 0.0000000 0.0000000 1369.4562988
outer loop
vertex -1.4544410 -32.3099098 -6.4000001
vertex 32.3099289 1.4544200 -6.4000001
vertex 12.0303097 21.7340393 -6.4000001
endloop
endfacet
facet normal 4.7907143 -4.7907109 0.0000305
outer loop
vertex -1.4544410 -32.3099098 -33.4000015
vertex 2.9626260 -27.8928394 -33.4000015
vertex 3.5285389 -27.3269196 -32.3154106
endloop
endfacet
facet normal 0.0000000 -0.0000000 -140.7630920
outer loop
vertex -31.1138592 1.7665780 -33.4000015
vertex -1.4544410 -32.3099098 -33.4000015
vertex -33.3223991 -0.4419552 -33.4000015
endloop
endfacet
facet normal 0.0000000 0.0000000 46.7110634
outer loop
vertex -33.3223991 -0.4419552 -6.4000001
vertex -3.7123070 -3.7123129 -6.4000001
vertex -4.8503461 -2.0090809 -6.4000001
endloop
endfacet
facet normal -0.0000000 0.0000000 -284.6422729
outer loop
vertex 32.3099289 1.4544200 -33.4000015
vertex 27.8439693 -3.0115430 -33.4000015
vertex 0.4419552 33.3223991 -33.4000015
endloop
endfacet
facet normal 911.6369629 -911.6380615 -0.0004120
outer loop
vertex 5.9154859 -24.9399796 -33.4000015
vertex 32.3099289 1.4544200 -6.4000001
vertex -1.4544410 -32.3099098 -6.4000001
endloop
endfacet
facet normal -13.2233553 -13.2233524 -58.2558594
outer loop
vertex -5.5089002 27.3715401 -31.8999996
vertex 27.2730904 -3.5824180 -32.3149414
vertex 26.3590698 -4.4964380 -31.8999996
endloop
endfacet
facet normal 0.0000000 0.0000000 782.5467529
outer loop
vertex -33.3223991 -0.4419552 -6.4000001
vertex 12.0303097 21.7340393 -6.4000001
vertex 0.4419552 33.3223991 -6.4000001
endloop
endfacet
facet normal 0.0000000 0.0000000 -334.1935120
outer loop
vertex 0.3340037 -12.8945799 -33.4000015
vertex 24.8748093 -5.9807010 -33.4000015
vertex 5.9154859 -24.9399796 -33.4000015
endloop
endfacet
facet normal -10.7894201 -54.2450142 0.0785118
outer loop
vertex 1.9764860 4.8177509 -33.4000015
vertex 2.0090821 4.8503461 -6.4000001
vertex 0.0000076 5.2499542 -6.4000001
endloop
endfacet
facet normal 0.0000000 -0.0000000 -373.7162170
outer loop
vertex -6.9931650 25.8872700 -33.4000015
vertex -6.8051119 6.3638301 -33.4000015
vertex -25.9524708 6.9279718 -33.4000015
endloop
endfacet
facet normal 10.7906952 -54.2444191 0.0524565
outer loop
vertex -0.0325879 5.2173600 -33.4000015
vertex 0.0000076 5.2499542 -6.4000001
vertex -2.0090449 4.8502989 -6.4000001
endloop
endfacet
facet normal -30.7258415 45.9880219 -0.0184234
outer loop
vertex 3.6797149 -3.7449059 -33.4000015
vertex 2.0090511 -4.8503051 -6.4000001
vertex 3.7123110 -3.7123110 -6.4000001
endloop
endfacet
facet normal -45.9880219 30.7258415 0.0184268
outer loop
vertex 4.8503051 -2.0090511 -6.4000001
vertex 4.8177090 -2.0416460 -33.4000015
vertex 3.7123110 -3.7123110 -6.4000001
endloop
endfacet
facet normal -54.2444267 10.7906828 0.0524606
outer loop
vertex 4.8503051 -2.0090511 -6.4000001
vertex 5.2173638 -0.0325933 -33.4000015
vertex 4.8177090 -2.0416460 -33.4000015
endloop
endfacet
facet normal -2.3953550 2.3953500 0.0000153
outer loop
vertex -28.9053307 3.9751110 -33.4000015
vertex -31.1138592 1.7665780 -33.4000015
vertex -28.3394108 4.5410252 -32.3154106
endloop
endfacet
facet normal 0.0000000 0.0000000 -132.0073700
outer loop
vertex -0.0325879 5.2173600 -33.4000015
vertex -6.8051119 6.3638301 -33.4000015
vertex -6.9931650 25.8872700 -33.4000015
endloop
endfacet
facet normal 312.8857422 312.8856201 0.0001221
outer loop
vertex 32.3099289 1.4544200 -33.4000015
vertex 0.4419552 33.3223991 -6.4000001
vertex 12.0303097 21.7340393 -6.4000001
endloop
endfacet
facet normal 13.2382946 13.2382975 -58.0125427
outer loop
vertex -28.3394108 4.5410252 -32.3154106
vertex -27.4292107 5.4512291 -31.8999996
vertex 3.5285389 -27.3269196 -32.3154106
endloop
endfacet
facet normal -20.7754669 20.7755127 0.0000038
outer loop
vertex -33.3223991 -0.4419552 -6.4000001
vertex -26.5185108 6.3619270 -32.3152809
vertex -27.4292107 5.4512291 -31.8999996
endloop
endfacet
facet normal 0.0000000 0.0000000 -10.9420605
outer loop
vertex -3.7449031 -3.7449090 -33.4000015
vertex -2.0416710 -4.8829470 -33.4000015
vertex 0.3340037 -12.8945799 -33.4000015
endloop
endfacet
facet normal 54.2450027 10.7894459 -0.0785108
outer loop
vertex -5.2825499 -0.0326031 -33.4000015
vertex -4.8503461 -2.0090809 -6.4000001
vertex -4.8829408 -2.0416770 -33.4000015
endloop
endfacet
facet normal 54.2449989 10.7894459 -0.0785108
outer loop
vertex -5.2825499 -0.0326031 -33.4000015
vertex -5.2499552 -0.0000070 -6.4000001
vertex -4.8503461 -2.0090809 -6.4000001
endloop
endfacet
facet normal 54.2444077 -10.7907209 -0.0524601
outer loop
vertex -4.8828950 1.9764490 -33.4000015
vertex -4.8502989 2.0090449 -6.4000001
vertex -5.2499552 -0.0000070 -6.4000001
endloop
endfacet
facet normal -1.0982275 1.0982342 0.0000267
outer loop
vertex 0.4419552 33.3223991 -33.4000015
vertex -4.5948849 28.2855606 -32.3149414
vertex -5.5089002 27.3715401 -31.8999996
endloop
endfacet
facet normal -911.6376343 911.6376343 0.0000000
outer loop
vertex 0.4419552 33.3223991 -33.4000015
vertex -33.3223991 -0.4419552 -6.4000001
vertex 0.4419552 33.3223991 -6.4000001
endloop
endfacet
facet normal -34.5786743 -34.5786705 -36.3851929
outer loop
vertex 27.2730904 -3.5824180 -32.3149414
vertex -4.5948849 28.2855606 -32.3149414
vertex -4.0240068 28.8564301 -33.4000015
endloop
endfacet
facet normal -860.4348145 -860.4349365 0.0000000
outer loop
vertex -33.3223991 -0.4419552 -6.4000001
vertex -1.4544410 -32.3099098 -33.4000015
vertex -1.4544410 -32.3099098 -6.4000001
endloop
endfacet
facet normal 0.0000000 0.0000000 -5.6152720
outer loop
vertex -5.2825499 -0.0326031 -33.4000015
vertex -6.8051119 6.3638301 -33.4000015
vertex -4.8828950 1.9764490 -33.4000015
endloop
endfacet
facet normal 30.7258358 -45.9880295 0.0184231
outer loop
vertex -2.0416410 4.8177042 -33.4000015
vertex -2.0090449 4.8502989 -6.4000001
vertex -3.7123051 3.7123051 -6.4000001
endloop
endfacet
facet normal 0.0000000 0.0000000 26.6203175
outer loop
vertex -2.0090449 4.8502989 -6.4000001
vertex -33.3223991 -0.4419552 -6.4000001
vertex -3.7123051 3.7123051 -6.4000001
endloop
endfacet
facet normal -45.9872360 -30.7270527 0.0926099
outer loop
vertex 3.6797180 3.6797130 -33.4000015
vertex 4.8503518 2.0090761 -6.4000001
vertex 3.7123129 3.7123070 -6.4000001
endloop
endfacet
facet normal -45.9872704 -30.7270584 0.0926109
outer loop
vertex 4.8177571 1.9764810 -33.4000015
vertex 4.8503518 2.0090761 -6.4000001
vertex 3.6797180 3.6797130 -33.4000015
endloop
endfacet
facet normal 547.5497437 547.5497437 0.0000000
outer loop
vertex 12.0303097 21.7340393 -6.4000001
vertex 32.3099289 1.4544200 -6.4000001
vertex 32.3099289 1.4544200 -33.4000015
endloop
endfacet
facet normal 25.7767639 -25.7767944 0.0000019
outer loop
vertex 32.3099289 1.4544200 -6.4000001
vertex 26.3590698 -4.4964380 -31.8999996
vertex 27.2730904 -3.5824180 -32.3149414
endloop
endfacet
facet normal 20.5694981 -20.5695477 0.0001259
outer loop
vertex 25.4455509 -5.4099541 -32.3150711
vertex 5.9154859 -24.9399796 -33.4000015
vertex 24.8748093 -5.9807010 -33.4000015
endloop
endfacet
facet normal 7.1152558 -7.1152687 -0.0000191
outer loop
vertex 26.3590698 -4.4964380 -31.8999996
vertex 5.9154859 -24.9399796 -33.4000015
vertex 25.4455509 -5.4099541 -32.3150711
endloop
endfacet
facet normal -34.8393707 34.8393707 -0.0000038
outer loop
vertex -6.4224210 26.4580193 -32.3150711
vertex -33.3223991 -0.4419552 -6.4000001
vertex -5.5089002 27.3715401 -31.8999996
endloop
endfacet
facet normal 34.5745316 34.5745354 -36.3769264
outer loop
vertex 24.8748093 -5.9807010 -33.4000015
vertex -6.9931650 25.8872700 -33.4000015
vertex 25.4455509 -5.4099541 -32.3150711
endloop
endfacet
facet normal -13.2341633 -13.2341642 -58.0442505
outer loop
vertex 4.4387412 -26.4167194 -31.8999996
vertex -27.4292107 5.4512291 -31.8999996
vertex -26.5185108 6.3619270 -32.3152809
endloop
endfacet
facet normal -0.0000000 0.0000000 -8.2668533
outer loop
vertex -3.7449000 3.6797090 -33.4000015
vertex -4.8828950 1.9764490 -33.4000015
vertex -6.8051119 6.3638301 -33.4000015
endloop
endfacet
facet normal 860.4354858 860.4353638 0.0000000
outer loop
vertex 0.4419552 33.3223991 -6.4000001
vertex 32.3099289 1.4544200 -33.4000015
vertex 0.4419552 33.3223991 -33.4000015
endloop
endfacet
endsolid 0
solid 1
endsolid 1
